<?xml version="1.0" encoding="utf-8"?>
<!-- Generator: Adobe Illustrator 24.1.2, SVG Export Plug-In . SVG Version: 6.00 Build 0)  -->
<svg version="1.1" id="Layer_1" xmlns="http://www.w3.org/2000/svg" xmlns:xlink="http://www.w3.org/1999/xlink" x="0px" y="0px"
	 viewBox="0 0 841.89 595.28" style="enable-background:new 0 0 841.89 595.28;" xml:space="preserve">
<style type="text/css">
	.st0{fill-rule:evenodd;clip-rule:evenodd;}
</style>
<g>
	<path class="st0" d="M286.7,248.66c-6.7-5.62-8.47-13.02-8.47-19.33c0-4.46,1.46-12.17,7.93-17.95c4.93-4.31,11.4-6.93,21.49-6.93
		c4.24,0,6.78,0.31,9.86,0.69c2.54,0.39,4.77,0.85,6.78,1.08c0.77,0.08,1,0.39,1,0.77c0,0.54-0.54,11.35-0.54,11.35
		c-0.03,1.14-1.65,0.91-1.62-0.15c0.09-2.64-0.92-4.66-2.62-6.35c-2.31-2.23-6.85-3.85-13.09-3.85c-5.93,0-9.7,1.08-12.78,3.69
		c-5.01,4.32-6.24,10.63-6.24,17.02c0,15.56,11.37,22.96,20.46,22.96c6.01,0,9.32-0.46,12.02-3.47c1.16-1.31,2.12-3.47,2.31-4.71
		c0.25-1.57,1.62-1.09,1.62-0.15c0,0.77-0.77,6.79-1.46,9.02c-0.31,1.16-0.61,1.46-1.77,1.93c-2.7,1.08-7.86,1.46-12.25,1.46
		C300.07,255.74,292.86,253.82,286.7,248.66z"/>
	<path class="st0" d="M398.21,247.27c-7.83-6.86-9.9-15.81-9.9-23.56c0-5.43,1.68-14.85,9.34-21.89c5.75-5.27,13.34-8.46,25.25-8.46
		c4.94,0,7.9,0.32,11.58,0.8c3.03,0.4,5.59,1.12,7.98,1.36c0.88,0.08,1.2,0.47,1.2,0.96c0,0.64-0.24,1.6-0.4,4.39
		c-0.15,2.64-0.08,7.03-0.24,8.63c-0.07,1.2-0.24,1.84-0.95,1.84c-0.64,0-0.8-0.64-0.8-1.76c-0.08-2.47-1.12-5.27-3.12-7.34
		c-2.63-2.8-8.87-4.95-16.22-4.95c-6.95,0-11.5,1.75-15.01,4.95c-5.83,5.35-7.35,12.94-7.35,20.69c0,19.01,14.46,28.43,25.16,28.43
		c7.11,0,11.43-0.8,14.62-4.48c1.36-1.51,2.4-3.83,2.72-5.27c0.24-1.28,0.4-1.6,1.04-1.6c0.55,0,0.72,0.56,0.72,1.2
		c0,0.95-0.97,7.9-1.76,10.62c-0.4,1.36-0.72,1.76-2.08,2.32c-3.19,1.28-9.27,1.83-14.37,1.83
		C414.67,255.98,405.48,253.58,398.21,247.27z"/>
	<path class="st0" d="M496.81,231.33c0-14.48-8.7-23.42-19.64-23.42c-7.55,0-16.4,4.01-16.4,20.18c0,13.48,7.7,24.11,20.49,24.11
		C486.03,252.2,496.81,249.97,496.81,231.33L496.81,231.33z M450.75,230.1c0-11.17,7.86-25.65,28.42-25.65
		c17.09,0,27.73,9.48,27.73,24.49c0,15.02-10.94,26.81-28.43,26.81C458.76,255.75,450.75,241.73,450.75,230.1z"/>
	<path class="st0" d="M816.57,231.33c0-14.48-8.71-23.42-19.64-23.42c-7.55,0-16.41,4.01-16.41,20.18c0,13.48,7.7,24.11,20.48,24.11
		C805.78,252.2,816.57,249.97,816.57,231.33L816.57,231.33z M770.51,230.1c0-11.17,7.86-25.65,28.42-25.65
		c17.1,0,27.73,9.48,27.73,24.49c0,15.02-10.94,26.81-28.42,26.81C778.52,255.75,770.51,241.73,770.51,230.1z"/>
	<path class="st0" d="M131.26,238.83l-15.74-4.82c-0.07-0.01-0.63-0.2-0.47-0.5l6.97-15.59c0.08-0.23,0.17-0.33,0.42-0.33
		c0.18,0,0.26,0.1,0.35,0.33l8.82,20.52C131.68,238.68,131.59,238.83,131.26,238.83L131.26,238.83z M155.46,253.51
		c-0.86,0-2.37-0.08-3.48-0.23c-1.36-0.23-3.48-1.08-6.37-7.01c-4.76-9.94-17.24-36.43-19.02-40.05c-0.69-1.32-1.64-2.29-2.87-2.29
		h-10.7c-1.27,0-1.08,1.35-0.31,1.36c4.33,0.08,9.67,1.55,7.46,5.67l-10.22,21.46c-5.19-1.29-10.56-3.17-10.31-5.39
		c0,0-2.61,5.7,8.49,9.21c0,0-3.17,6.73-5.48,11.43c-2.32,4.69-2.8,5.31-6.2,5.78c-0.68,0-1.21,0.08-1.88,0.08
		c-0.59,0-0.84,1.23,0.1,1.23h17.39c1.08,0,1.02-1.23,0.08-1.23h-1.42c-2.29,0-3.29-0.7-3.29-1.85c0-0.77,1.07-3.18,1.42-4.01
		c3.35-7.68,4-9.15,4-9.15c0.17-0.38,0.26-0.46,0.68-0.46l19.76,5.4c1.17,0,4.35,8.27,4.35,8.27c0.96,1.8,0.93,2.89,3.2,3.02h14.33
		C156.55,254.75,156.13,253.51,155.46,253.51z"/>
	<path class="st0" d="M562.88,205.06h-16.34c-0.93,0-1.39,0.15-1.39,0.62c0,0.46,0.22,0.7,1.16,0.7c0.77,0,1.92,0.07,2.47,0.23
		c2.15,0.62,2.69,1.63,2.84,3.86c0.08,2.08,0.15,3.93,0.15,13.87v8.24c0,6.7-0.15,12.4-3.93,15.95c-2.69,2.62-6.16,3.46-9.08,3.46
		c-2.31,0-5.55-0.23-8.55-2.62c-3.31-2.61-5.16-6.32-5.16-15.87v-9.16c0-2.78,0-4.91,0-6.61V207.7c0-2.38-2.77-2.65-4.47-2.65
		h-11.78c-0.95,0-0.95,1.31,0.02,1.31c0.93,0,3.38,0.07,3.91,0.23c2.16,0.62,2.78,1.55,2.93,3.86c0.16,2.08,0.08,3.93,0.08,13.87
		v9.63c0,9.47,2.69,14.32,6.16,17.32c4.92,4.32,11.93,4.47,15.47,4.47c4.4,0,9.56-0.69,14.33-4.7c5.7-4.7,6.47-12.4,6.47-19.72
		v-7.01c0-9.94,0.07-11.79,0.15-13.87c0.16-2.31,0.62-3.55,2.47-3.86c0.85-0.16,1.55-0.23,2.32-0.23
		C563.88,206.37,564.05,205.06,562.88,205.06z"/>
	<path class="st0" d="M76.89,191.78l-0.1-0.05h-1.33c-0.13-0.01-0.25-0.01-0.37-0.01c-0.12,0-0.25,0-0.37,0.01
		c0,0-8.07,0.67-14.82,0.67c-6.76,0-13.2-0.67-13.2-0.67h-0.8c-1.11,0-1.26,1.89,0,1.89c1.26,0,0.29,0.04,0.78,0.07
		c5,0.27,7.52,0.38,7.52,5.8v43.26c0,8.39,0,9.9-7.05,10.93c-0.69,0.11,0,0,0,0c-1.01,0-0.89,1.14,0,1.14h0.89h24.28h1.35
		c0.61,0,0.6-1.14,0-1.14c0,0-0.48-0.08-1.23-0.13c-8.01-0.52-7.94-3.59-7.94-12.15v-40.29c0-5.7,1.84-5.4,8.4-5.4
		c13.08,0,14.83,9.89,14.83,13.7c0,8-3.5,15.65-15.01,15.65c-1.2,0-1.23,1.28-0.48,1.44c0,0,1.34,0.2,2.86,0.26
		c13.46,0.58,21.74-7.65,22.41-17.36C98.28,197.99,91.22,191.72,76.89,191.78z"/>
	<path class="st0" d="M171.24,205.32h-0.01h-0.01h-23.16v4.13v5.05c0,0.95,1.01,0.75,1.08,0c0.54-5.57,4.56-5.38,18.13-5.38v35.12
		c0,7.3-1.29,8.61-7.42,9.51c-0.88,0-0.78,0.99,0,0.99h0.77h22.41h1.17c0.53,0,0.52-0.99,0-0.99c0,0-0.42-0.07-1.07-0.11
		c-6.96-0.46-6.9-3.12-6.9-10.57v-33.95c12.74-0.01,16.58-0.05,17.1,5.38c0.07,0.75,1.08,0.95,1.08,0v-5.05v-4.13H171.24z"/>
	<path class="st0" d="M199.33,253.85c-0.01,0-0.02,0-0.02,0C199.31,253.85,199.32,253.85,199.33,253.85L199.33,253.85z
		 M199.51,253.82h-0.03H199.51L199.51,253.82z M251.83,253.37c-0.54,0-1.93-0.88-1.93-0.88c-4.05,0.03-5.69-2.08-7.25-3.59
		c-3.76-3.62-7.29-8.17-12.6-15.92c6.41-2.34,10.51-7.52,10.51-13.18c0-9.56-6.51-14.76-18.46-14.7l-0.09-0.05h-1.12
		c-0.11,0-0.2,0-0.31,0c-0.1,0-0.21,0-0.31,0c0,0-4.46,0.56-10.09,0.56c-5.63,0-11-0.56-11-0.56h-0.66c-0.92,0-1.05,1.58,0,1.58
		c1.05,0,0.24,0.03,0.65,0.06c4.17,0.22,6.27,0.32,6.27,4.84v33.17c0,6.99,0,8.25-5.87,9.11c-0.01,0-0.01,0.01-0.01,0.01
		c0.01,0,0.01-0.01,0.01-0.01c-0.84,0-0.74,0.95,0,0.95h0.74h20.24h1.13c0.51,0,0.49-0.95,0-0.95c0,0-0.4-0.06-1.03-0.1
		c-6.67-0.44-6.62-3-6.62-10.13v-30.69c0-4.74-0.73-4.66,4.74-4.5c9.82,0.28,13.92,4.8,13.98,11.43
		c0.04,5.21-3.84,12.57-13.48,13.37c-1,0.09-1.03,0.74-0.4,0.88c0,0,1.11,0.16,2.38,0.22c0.37,0.01,0.73,0.02,1.09,0.02
		c2.08,3.44,10.13,16.31,14.2,19.15c1.64,1.14,4.59,1.31,8.36,1.31h6.47c0.85,0,1.31-0.16,1.31-0.7
		C252.68,253.76,252.37,253.37,251.83,253.37z"/>
	<path class="st0" d="M261.46,205.06h-9.34c-0.92,0-1.05,1.59,0,1.59c1.05,0,0.25,0.03,0.65,0.06c4.17,0.22,6.26,0.32,6.26,4.84
		v33.16c-0.05,7.74-5.03,7.83-9.72,7.79c-0.58,0,1.28,0.68,1.28,0.68c-0.84,0,0.33,1.59,1.07,1.59h2.24h20.24h1.12
		c0.51,0,0.5-0.95,0-0.95c0,0-0.39-0.06-1.02-0.1c-6.67-0.44-6.62-3-6.62-10.13v-32.34C267.63,205.92,264.97,205.06,261.46,205.06z"
		/>
	<path class="st0" d="M590.04,205.32h-0.01H590h-23.16v4.13v5.05c0,0.95,1.01,0.75,1.09,0c0.53-5.57,4.56-5.38,18.12-5.38v35.12
		c0,7.3-1.29,8.61-7.41,9.51c-0.88,0-0.78,0.99,0,0.99h0.77h22.41h1.17c0.53,0,0.52-0.99,0-0.99c0,0-0.42-0.07-1.07-0.11
		c-6.96-0.46-6.9-3.12-6.9-10.57v-33.95c12.74-0.01,16.58-0.05,17.09,5.38c0.07,0.75,1.08,0.95,1.08,0v-5.05v-4.13H590.04z"/>
	<path class="st0" d="M627.14,203.93h-9.34c-0.92,0-1.05,1.62,0,1.62c1.05,0,0.24,0.03,0.65,0.06c4.17,0.23,6.27,0.32,6.27,4.95
		v33.91c0,7.15,0,8.44-5.88,9.32c-0.58,0.08,0,0,0,0c-0.84,0-0.74,0.97,0,0.97h0.75h20.24h1.12c0.51,0,0.49-0.97,0-0.97
		c0,0-0.4-0.07-1.03-0.11c-6.67-0.45-6.62-3.06-6.62-10.36v-33.07C633.31,204.82,630.64,203.93,627.14,203.93z"/>
	<path class="st0" d="M702.81,205.06h-1.12h-14.43h-0.42c-0.07,0-0.12,0.01-0.17,0.03c-0.13-0.02-0.2-0.03-0.2-0.03h-0.66
		c-0.93,0-1.05,1.58,0,1.58c1.05,0,0.24,0.03,0.64,0.05c2.76,0.15,3.64,0.24,4.58,1.59c0.72,1.3,0.72,1.42,0.72,4.9v28.51
		c-4.84-4.88-26.9-27.5-31.49-32.17c-3.36-4.25-12.48-4.46-12.48-4.46h-0.74c-0.06,0-0.12,0.01-0.18,0.02
		c-0.13-0.02-0.2-0.02-0.2-0.02h-0.66c-0.93,0-1.05,1.58,0,1.58c1.05,0,0.24,0.03,0.64,0.05c2.76,0.15,4.61,0.24,5.55,1.6
		c0.72,1.29,0.72,3.35,0.72,6.83v29.57c0,3.47,0,5.54-0.72,6.84c-0.94,1.35-2.79,1.44-5.55,1.59c-0.4,0.02,0.41,0.05-0.64,0.05
		c-1.05,0-0.93,1.58,0,1.58h0.66c0,0,0.07-0.01,0.2-0.02c0.05,0.01,0.11,0.02,0.18,0.02h0.74h19.59h1.12c0.51,0,0.49-1.27,0-1.27
		c0,0-0.4-0.06-1.03-0.11c-6.67-0.44-5.97-2.67-5.97-9.8v-20.26l29.92,31.43c0,0,0.03-0.11,0.08-0.27c1.77,2.22,5.94,1.63,5.94-1.04
		c0-0.05,0.01-2.98,0.01-3.03v-7.15v-27.01c0-7.13-0.79-8.86,4.36-9.8c0.62-0.11,1.03-0.11,1.03-0.11
		C703.3,206.33,703.32,205.06,702.81,205.06z"/>
	<path class="st0" d="M766.44,219.55c-0.01-0.02-0.01-0.04-0.01-0.04C766.44,219.52,766.44,219.53,766.44,219.55z"/>
	<path class="st0" d="M758.73,228.71c0,0,9.98-3.26,7.71-9.16c0.07,0.29,0.13,2.24-9.37,5.34c-0.32,0.1-0.65,0.21-0.99,0.33v-10.1
		c0-3.48,0-5.54,0.73-6.83c0.94-1.35,2.79-1.45,5.55-1.6c0.4-0.02-0.41-0.05,0.64-0.05c1.05,0,0.93-1.58,0-1.58h-0.67
		c0,0-0.07,0-0.2,0.02c-0.05-0.01-0.11-0.02-0.18-0.02h-0.74h-18.63h-1.12c-0.51,0-0.5,0.94,0,0.94c0,0,0.4,0.07,1.03,0.11
		c5.04,0.33,4.97,2.11,5.01,6.63c0,0.05,0,0.1,0,0.15v3.36v11.81c-7.96,2.64-17.6,5.86-23.41,7.81v-19.62v-3.36
		c0-0.05-0.01-0.1-0.01-0.15c0.04-4.51-0.02-6.3,5.01-6.63c0.62-0.04,1.03-0.11,1.03-0.11c0.49,0,0.51-0.94,0-0.94h-1.13h-18.62
		h-0.74c-0.07,0-0.12,0.01-0.17,0.02c-0.13-0.02-0.2-0.02-0.2-0.02h-0.67c-0.92,0-1.05,1.58,0,1.58c1.05,0,0.24,0.03,0.65,0.05
		c2.76,0.15,4.61,0.24,5.55,1.6c0.72,1.29,0.72,3.35,0.72,6.83v29.57c0,3.48,0,5.54-0.72,6.84c-0.94,1.35-2.79,1.44-5.55,1.59
		c-0.4,0.02,0.41,0.06-0.65,0.06c-1.05,0-0.92,1.58,0,1.58h0.67c0,0,0.07-0.01,0.2-0.02c0.05,0.01,0.11,0.02,0.17,0.02h0.74h19.6
		h1.13c0.51,0,0.49-1.27,0-1.27c0,0-0.4-0.06-1.03-0.11c-6.68-0.44-5.97-2.67-5.97-9.8v-3.39l23.41-7.75v11.15
		c0,7.13,1.02,9.37-5.65,9.8c-0.62,0.04-1.03,0.11-1.03,0.11c-0.49,0-0.51,1.27,0,1.27h1.12h18.63h0.75c0.06,0,0.12-0.01,0.17-0.02
		c0.13,0.01,0.21,0.02,0.21,0.02h0.66c0.92,0,1.05-1.58,0-1.58c-1.05,0-0.24-0.03-0.65-0.06c-2.75-0.15-3.96-0.24-4.89-1.59
		c-0.73-1.3-0.73-3.36-0.73-6.84v-15.11L758.73,228.71z"/>
	<path class="st0" d="M396.53,265.42c-0.55,0-0.94,0-1.64-0.16c-1.09-0.23-3.76-0.61-7.65-4.36c-3.47-3.36-21.94-27.47-29.19-37.57
		c4.12-4.71,8.78-9.97,9.93-11.03c2.85-2.69,6.27-6.05,8.42-6.82c1.23-0.46,2.93-0.77,3.93-0.77c0.61,0,1-0.23,1-0.69
		c0-0.46-0.46-0.62-1.15-0.62c-2.08,0-5.85,0.16-7.93,0.16c-1.85,0-8.96,7.12-10.9,9.28c-2,2.23-11.86,11.94-14.17,14.4l-0.42,0.42
		v-11.42v-3.35c0-0.05-0.01-0.1-0.01-0.15c0.04-4.51,0.62-6.3,5.66-6.63c0.63-0.04,1.03-0.11,1.03-0.11c0.5,0,0.51-0.94,0-0.94
		h-1.13h-19.27h-0.74c-0.06,0-0.12,0.01-0.17,0.02c-0.13-0.02-0.2-0.02-0.2-0.02h-0.67c-0.92,0-1.05,1.58,0,1.58
		c1.05,0,0.24,0.03,0.65,0.05c2.76,0.15,4.61,0.25,5.55,1.6c0.72,1.29,0.72,3.35,0.72,6.83v29.57c0,3.48-0.01,5.53-0.72,6.84
		c-0.94,1.35-2.79,1.44-5.55,1.59c-0.4,0.02,0.41,0.05-0.65,0.05c-1.05,0-0.92,1.58,0,1.58h0.67c0,0,0.07-0.01,0.2-0.02
		c0.05,0.02,0.11,0.02,0.17,0.02h0.74h20.24h1.12c0.51,0,0.5-0.95,0-0.95c0,0-0.4-0.07-1.03-0.11c-6.67-0.44-6.62-2.99-6.62-10.13
		v-7.57l4.4-4.76c0,0,0.37-0.43,1-1.15c6.82,9.74,23.86,33.01,27.29,35.4c1.66,1.15,6.25,1.33,10.07,1.33h6.54
		c0.86,0,1.33-0.16,1.33-0.7C397.39,265.81,397.07,265.42,396.53,265.42z"/>
</g>
<path class="st0" d="M289.46,317.85h3.68c1.37,0,2.57-0.21,3.59-0.65c1.02-0.43,1.87-0.99,2.54-1.68c0.67-0.7,1.17-1.49,1.5-2.38
	c0.34-0.89,0.5-1.81,0.5-2.76c0-0.95-0.16-1.86-0.5-2.76c-0.33-0.89-0.83-1.69-1.5-2.38c-0.67-0.69-1.52-1.26-2.54-1.68
	c-1.02-0.43-2.22-0.64-3.59-0.64h-3.68V317.85L289.46,317.85z M287.6,301.28h6.05c1.13,0,2.27,0.19,3.41,0.56
	c1.14,0.38,2.17,0.94,3.09,1.71c0.92,0.76,1.66,1.72,2.23,2.85c0.56,1.14,0.85,2.47,0.85,3.98c0,1.53-0.28,2.85-0.85,4
	c-0.57,1.13-1.31,2.07-2.23,2.84c-0.92,0.77-1.95,1.34-3.09,1.72c-1.14,0.37-2.28,0.56-3.41,0.56h-6.05V301.28z"/>
<polygon class="st0" points="340.68,317.1 340.73,317.1 346.65,301.27 348.63,301.27 341.66,319.5 339.7,319.5 332.75,301.27 
	334.76,301.27 "/>
<path class="st0" d="M395.2,310.4c0-1.06-0.17-2.07-0.52-3.03c-0.34-0.96-0.84-1.8-1.49-2.53c-0.65-0.73-1.44-1.31-2.38-1.73
	c-0.93-0.43-1.99-0.65-3.15-0.65c-1.17,0-2.22,0.22-3.15,0.65c-0.93,0.43-1.73,1.01-2.38,1.73c-0.65,0.73-1.15,1.57-1.5,2.53
	c-0.34,0.96-0.51,1.97-0.51,3.03c0,1.06,0.17,2.07,0.51,3.03c0.35,0.96,0.84,1.8,1.5,2.52c0.65,0.72,1.45,1.29,2.38,1.72
	c0.94,0.43,1.99,0.64,3.15,0.64c1.17,0,2.22-0.21,3.15-0.64c0.94-0.42,1.73-1,2.38-1.72c0.66-0.72,1.15-1.56,1.49-2.52
	C395.02,312.47,395.2,311.46,395.2,310.4L395.2,310.4z M397.15,310.38c0,1.4-0.24,2.67-0.72,3.85c-0.48,1.16-1.15,2.17-1.99,3.02
	c-0.85,0.85-1.86,1.51-3.01,1.99c-1.16,0.49-2.42,0.72-3.77,0.72c-1.35,0-2.61-0.24-3.77-0.72c-1.16-0.48-2.16-1.14-3.01-1.99
	c-0.86-0.85-1.52-1.86-2-3.02c-0.48-1.17-0.72-2.45-0.72-3.85c0-1.39,0.24-2.66,0.72-3.83c0.48-1.17,1.14-2.18,2-3.02
	c0.85-0.85,1.85-1.51,3.01-2c1.16-0.48,2.42-0.73,3.77-0.73c1.35,0,2.61,0.24,3.77,0.73c1.16,0.49,2.16,1.14,3.01,2
	c0.85,0.84,1.51,1.85,1.99,3.02C396.91,307.72,397.15,308.99,397.15,310.38z"/>
<path class="st0" d="M443.15,304.56c-0.63-0.67-1.39-1.18-2.27-1.55c-0.87-0.36-1.88-0.55-3.01-0.55c-1.16,0-2.22,0.21-3.15,0.64
	c-0.94,0.43-1.73,1.01-2.38,1.73c-0.65,0.73-1.16,1.57-1.51,2.53c-0.35,0.96-0.53,1.97-0.53,3.03c0,1.06,0.17,2.07,0.53,3.03
	c0.35,0.96,0.85,1.8,1.51,2.52c0.65,0.72,1.44,1.29,2.38,1.72c0.93,0.43,1.98,0.65,3.15,0.65c1.03,0,1.98-0.12,2.84-0.34
	c0.86-0.22,1.56-0.5,2.08-0.84v-5.54h-4.24v-1.65h6.1v8.24c-1,0.6-2.07,1.05-3.22,1.34c-1.14,0.3-2.34,0.44-3.57,0.44
	c-1.37,0-2.64-0.24-3.81-0.73c-1.17-0.47-2.17-1.14-3.01-1.99c-0.84-0.85-1.5-1.85-1.97-3.02c-0.47-1.17-0.7-2.45-0.7-3.84
	c0-1.4,0.24-2.67,0.72-3.84c0.48-1.17,1.14-2.18,1.99-3.02c0.85-0.85,1.86-1.51,3.01-2c1.16-0.49,2.42-0.73,3.77-0.73
	c1.46,0,2.73,0.22,3.81,0.66c1.08,0.44,2,1.04,2.78,1.82L443.15,304.56z"/>
<path class="st0" d="M525.88,317.85h3.68c1.38,0,2.57-0.21,3.59-0.65c1.02-0.43,1.87-0.99,2.53-1.68c0.67-0.7,1.17-1.49,1.5-2.38
	c0.34-0.89,0.5-1.81,0.5-2.76c0-0.95-0.16-1.86-0.5-2.76c-0.33-0.89-0.83-1.69-1.5-2.38c-0.67-0.69-1.52-1.26-2.53-1.68
	c-1.02-0.43-2.22-0.64-3.59-0.64h-3.68V317.85L525.88,317.85z M524.03,301.28h6.06c1.13,0,2.27,0.19,3.41,0.56
	c1.14,0.38,2.17,0.94,3.09,1.71c0.92,0.76,1.66,1.72,2.23,2.85c0.57,1.14,0.85,2.47,0.85,3.98c0,1.53-0.28,2.85-0.85,4
	c-0.57,1.13-1.31,2.07-2.23,2.84c-0.92,0.77-1.95,1.34-3.09,1.72c-1.14,0.37-2.28,0.56-3.41,0.56h-6.06V301.28z"/>
<path class="st0" d="M587.89,310.4c0-1.06-0.18-2.07-0.51-3.03c-0.34-0.96-0.84-1.8-1.5-2.53c-0.65-0.73-1.44-1.31-2.38-1.73
	c-0.93-0.43-1.99-0.65-3.15-0.65c-1.17,0-2.22,0.22-3.16,0.65c-0.93,0.43-1.72,1.01-2.38,1.73c-0.65,0.73-1.15,1.57-1.49,2.53
	c-0.35,0.96-0.51,1.97-0.51,3.03c0,1.06,0.17,2.07,0.51,3.03c0.35,0.96,0.84,1.8,1.49,2.52c0.65,0.72,1.45,1.29,2.38,1.72
	c0.94,0.43,1.99,0.64,3.16,0.64c1.16,0,2.22-0.21,3.15-0.64c0.94-0.42,1.73-1,2.38-1.72c0.66-0.72,1.16-1.56,1.5-2.52
	C587.72,312.47,587.89,311.46,587.89,310.4L587.89,310.4z M589.85,310.38c0,1.4-0.24,2.67-0.72,3.85c-0.48,1.16-1.15,2.17-1.99,3.02
	c-0.85,0.85-1.86,1.51-3.01,1.99c-1.16,0.49-2.42,0.72-3.77,0.72c-1.35,0-2.61-0.24-3.77-0.72c-1.16-0.48-2.16-1.14-3.01-1.99
	c-0.85-0.85-1.52-1.86-2-3.02c-0.48-1.17-0.72-2.45-0.72-3.85c0-1.39,0.24-2.66,0.72-3.83c0.48-1.17,1.14-2.18,2-3.02
	c0.85-0.85,1.85-1.51,3.01-2c1.16-0.48,2.42-0.73,3.77-0.73c1.35,0,2.61,0.24,3.77,0.73c1.15,0.49,2.16,1.14,3.01,2
	c0.85,0.84,1.52,1.85,1.99,3.02C589.61,307.72,589.85,308.99,589.85,310.38z"/>
<path class="st0" d="M630.86,304.21c-0.4-0.55-0.9-0.99-1.52-1.32c-0.62-0.34-1.36-0.5-2.24-0.5c-0.45,0-0.9,0.07-1.37,0.2
	c-0.46,0.14-0.88,0.35-1.26,0.63c-0.38,0.28-0.68,0.64-0.91,1.07c-0.23,0.43-0.35,0.93-0.35,1.52c0,0.58,0.11,1.06,0.34,1.44
	c0.22,0.38,0.52,0.7,0.89,0.96c0.37,0.27,0.78,0.49,1.26,0.66c0.47,0.18,0.96,0.34,1.48,0.51c0.63,0.2,1.27,0.43,1.91,0.67
	c0.65,0.24,1.22,0.55,1.74,0.94c0.51,0.39,0.93,0.88,1.26,1.47c0.33,0.59,0.49,1.34,0.49,2.25c0,0.91-0.17,1.69-0.52,2.35
	c-0.35,0.66-0.8,1.21-1.35,1.64c-0.55,0.43-1.18,0.75-1.9,0.95c-0.71,0.2-1.43,0.31-2.15,0.31c-0.55,0-1.1-0.06-1.64-0.16
	c-0.55-0.12-1.07-0.28-1.57-0.51c-0.5-0.22-0.96-0.51-1.39-0.85c-0.43-0.34-0.8-0.73-1.13-1.18l1.6-1.18
	c0.39,0.65,0.94,1.19,1.66,1.63c0.71,0.43,1.55,0.66,2.51,0.66c0.47,0,0.94-0.07,1.42-0.23c0.47-0.14,0.91-0.36,1.3-0.66
	c0.39-0.31,0.7-0.67,0.95-1.12c0.25-0.43,0.37-0.95,0.37-1.53c0-0.63-0.12-1.16-0.37-1.58c-0.25-0.42-0.58-0.78-0.99-1.06
	c-0.41-0.28-0.89-0.52-1.41-0.71c-0.54-0.19-1.09-0.38-1.68-0.57c-0.6-0.19-1.19-0.4-1.78-0.64c-0.58-0.24-1.1-0.55-1.57-0.94
	c-0.47-0.39-0.84-0.86-1.12-1.43c-0.28-0.57-0.42-1.26-0.42-2.08c0-0.88,0.17-1.63,0.53-2.27c0.35-0.64,0.81-1.16,1.37-1.57
	c0.57-0.42,1.2-0.72,1.88-0.91c0.69-0.19,1.37-0.29,2.04-0.29c1.24,0,2.29,0.22,3.17,0.66c0.88,0.44,1.53,0.96,1.98,1.56
	L630.86,304.21z"/>
<polygon class="st0" points="248.78,301.27 246.99,301.27 239.11,319.5 241.14,319.5 243.12,314.71 247.36,314.71 247.86,313.01 
	243.82,313.01 247.83,303.33 254.55,319.5 256.61,319.5 "/>
<polygon class="st0" points="485.21,301.27 483.41,301.27 475.53,319.5 477.57,319.5 479.56,314.71 483.79,314.71 484.28,313.01 
	480.25,313.01 484.26,303.33 490.98,319.5 493.04,319.5 "/>
</svg>
