<svg xmlns="http://www.w3.org/2000/svg" viewBox="0 0 781.65 75.1"><defs><style>.cls-1{fill:#231f20;fill-rule:evenodd;}</style></defs><g id="Camada_2" data-name="Camada 2"><g id="Layer_1" data-name="Layer 1"><path class="cls-1" d="M241.69,56.94c-6.7-5.62-8.47-13-8.47-19.34a24.35,24.35,0,0,1,7.93-17.94c4.93-4.31,11.4-6.93,21.49-6.93a70.35,70.35,0,0,1,9.86.69c2.54.39,4.77.85,6.78,1.08.77.08,1,.39,1,.77,0,.54-.54,11.35-.54,11.35,0,1.14-1.65.91-1.62-.15a8.19,8.19,0,0,0-2.62-6.35c-2.3-2.23-6.85-3.85-13.09-3.85-5.93,0-9.7,1.08-12.78,3.7-5,4.31-6.24,10.63-6.24,17,0,15.56,11.37,22.95,20.45,22.95,6,0,9.32-.45,12-3.46a11.06,11.06,0,0,0,2.31-4.72c.25-1.56,1.62-1.08,1.62-.15a61.52,61.52,0,0,1-1.46,9,2.3,2.3,0,0,1-1.77,1.92c-2.7,1.08-7.86,1.46-12.25,1.46C255.06,64,247.85,62.1,241.69,56.94Z"/><path class="cls-1" d="M353.21,55.55c-7.83-6.87-9.9-15.81-9.9-23.56,0-5.43,1.67-14.86,9.34-21.89C358.4,4.83,366,1.64,377.89,1.64a80.45,80.45,0,0,1,11.58.79c3,.4,5.59,1.12,8,1.36.88.08,1.19.48,1.19,1,0,.64-.23,1.6-.39,4.39-.16,2.64-.09,7-.25,8.63-.07,1.2-.23,1.83-.95,1.83s-.8-.63-.8-1.75a11.4,11.4,0,0,0-3.12-7.35c-2.63-2.8-8.86-4.95-16.21-4.95-6.95,0-11.5,1.75-15,5-5.84,5.35-7.35,12.94-7.35,20.69,0,19,14.45,28.43,25.15,28.43,7.11,0,11.43-.8,14.62-4.47a13.31,13.31,0,0,0,2.72-5.27c.24-1.28.4-1.6,1-1.6s.72.56.72,1.2a77.34,77.34,0,0,1-1.76,10.62A2.83,2.83,0,0,1,395,62.42c-3.19,1.28-9.26,1.84-14.37,1.84C369.67,64.26,360.48,61.86,353.21,55.55Z"/><path class="cls-1" d="M451.81,39.61c0-14.48-8.7-23.42-19.64-23.42-7.55,0-16.4,4-16.4,20.19,0,13.47,7.7,24.1,20.48,24.1,4.78,0,15.56-2.23,15.56-20.87Zm-46.06-1.23c0-11.17,7.86-25.65,28.42-25.65,17.1,0,27.73,9.47,27.73,24.49S451,64,433.48,64C413.76,64,405.75,50,405.75,38.38Z"/><path class="cls-1" d="M771.57,39.61c0-14.48-8.71-23.42-19.65-23.42-7.54,0-16.4,4-16.4,20.19,0,13.47,7.7,24.1,20.48,24.1,4.78,0,15.57-2.23,15.57-20.87ZM725.5,38.38c0-11.17,7.86-25.65,28.42-25.65,17.1,0,27.73,9.47,27.73,24.49S770.71,64,753.24,64C733.52,64,725.5,50,725.5,38.38Z"/><path class="cls-1" d="M86.25,47.11,70.51,42.29c-.07,0-.63-.2-.47-.5l7-15.58c.08-.24.16-.33.42-.33s.25.09.34.33l8.82,20.52c.09.23,0,.38-.34.38Zm24.21,14.68a28.26,28.26,0,0,1-3.48-.23c-1.36-.23-3.48-1.08-6.37-7-4.76-9.94-17.24-36.43-19-40-.69-1.32-1.64-2.29-2.87-2.29H68c-1.27,0-1.08,1.35-.31,1.36,4.33.08,9.67,1.55,7.46,5.67L65,40.69c-5.2-1.29-10.56-3.17-10.32-5.39,0,0-2.6,5.71,8.49,9.21,0,0-3.16,6.74-5.48,11.43s-2.8,5.31-6.2,5.78c-.68,0-1.21.07-1.88.07s-.84,1.24.1,1.24H67.05c1.09,0,1-1.24.08-1.24H65.71c-2.29,0-3.3-.7-3.3-1.85a18.71,18.71,0,0,1,1.43-4c3.35-7.68,4-9.15,4-9.15.17-.37.25-.46.68-.46l19.76,5.41c1.16,0,4.35,8.26,4.35,8.26,1,1.8.93,2.9,3.19,3h14.34C111.55,63,111.13,61.79,110.46,61.79Z"/><path class="cls-1" d="M517.88,13.34H501.53c-.93,0-1.39.15-1.39.61s.22.7,1.16.7a12.12,12.12,0,0,1,2.47.22c2.15.62,2.69,1.63,2.84,3.86.08,2.08.16,3.93.16,13.87v8.24c0,6.7-.16,12.4-3.93,15.95a14.38,14.38,0,0,1-17.64.84C481.89,55,480,51.31,480,41.76V16c0-2.38-2.77-2.64-4.47-2.64H463.79a.66.66,0,1,0,0,1.31,29.55,29.55,0,0,1,3.91.22c2.17.62,2.78,1.55,2.93,3.86.16,2.08.08,3.93.08,13.87v9.63c0,9.47,2.7,14.32,6.17,17.32,4.92,4.32,11.93,4.47,15.47,4.47,4.4,0,9.56-.69,14.33-4.69,5.7-4.7,6.47-12.41,6.47-19.72v-7c0-9.94.07-11.79.16-13.87.15-2.31.61-3.54,2.46-3.86a12.78,12.78,0,0,1,2.32-.22C518.88,14.65,519.05,13.34,517.88,13.34Z"/><path class="cls-1" d="M31.89.06l-.1,0H29.71S21.64.68,14.89.68,1.69,0,1.69,0H.89C-.22,0-.37,1.9.89,1.9s.29,0,.77.07c5,.27,7.52.38,7.52,5.8V51c0,8.39,0,9.9-7,10.93h0c-1,0-.89,1.14,0,1.14H28.66c.61,0,.59-1.14,0-1.14,0,0-.48-.08-1.23-.13-8-.52-7.95-3.59-7.95-12.15V9.4c0-5.69,1.84-5.4,8.4-5.4C41,4,42.71,13.89,42.71,17.7c0,8-3.5,15.65-15,15.65-1.2,0-1.23,1.28-.48,1.44,0,0,1.34.2,2.86.26,13.46.59,21.74-7.65,22.41-17.35C53.27,6.27,46.22,0,31.89.06Z"/><path class="cls-1" d="M126.24,13.6H103.05v9.18c0,.95,1,.75,1.08,0,.54-5.57,4.56-5.37,18.13-5.37V52.53c0,7.3-1.29,8.61-7.42,9.51-.88,0-.78,1,0,1h24.35c.53,0,.53-1,0-1,0,0-.41-.07-1.07-.12-7-.45-6.9-3.12-6.9-10.56V17.41c12.74,0,16.58-.06,17.1,5.37.07.75,1.08.95,1.08,0V13.6Z"/><path class="cls-1" d="M154.33,62.13h0Zm.18,0h0Zm52.32-.45a6.45,6.45,0,0,1-1.93-.87c-4.06,0-5.69-2.09-7.25-3.59-3.76-3.62-7.29-8.17-12.6-15.92,6.41-2.34,10.51-7.52,10.51-13.18,0-9.56-6.52-14.75-18.46-14.7l-.09-.05h-1.74a90.2,90.2,0,0,1-10.09.56c-5.63,0-11-.56-11-.56h-.67c-.92,0-1,1.58,0,1.58s.24,0,.65.06c4.17.22,6.26.32,6.26,4.84V53c0,7,0,8.26-5.87,9.11h0c-.84,0-.74.95,0,.95h22.11c.51,0,.5-.95,0-.95,0,0-.4-.06-1-.1C169,61.55,169,59,169,51.86V21.17c0-4.74-.73-4.66,4.73-4.51,9.83.29,13.93,4.8,14,11.43,0,5.21-3.84,12.57-13.48,13.37-1,.09-1,.74-.4.88a23.91,23.91,0,0,0,2.39.22c.36,0,.73,0,1.09,0,2.08,3.44,10.13,16.31,14.2,19.15,1.64,1.14,4.59,1.31,8.36,1.31h6.47c.85,0,1.31-.15,1.31-.69A.78.78,0,0,0,206.83,61.65Z"/><path class="cls-1" d="M216.46,13.34h-9.34c-.92,0-1.05,1.58,0,1.58s.24,0,.65.06c4.17.22,6.26.31,6.26,4.84V53c-.05,7.74-5,7.83-9.72,7.79-.58,0,1.29.68,1.29.68-.85,0,.32,1.59,1.07,1.59h23.6c.51,0,.5-.95,0-.95,0,0-.4-.06-1-.1-6.68-.44-6.62-3-6.62-10.13V19.52C222.63,14.2,220,13.34,216.46,13.34Z"/><path class="cls-1" d="M545,13.6h-23.2v9.18c0,.95,1,.75,1.09,0,.53-5.57,4.56-5.37,18.12-5.37V52.53c0,7.3-1.29,8.61-7.42,9.51-.88,0-.77,1,0,1H558c.53,0,.52-1,0-1,0,0-.42-.07-1.07-.12-7-.45-6.9-3.12-6.9-10.56V17.41c12.74,0,16.57-.06,17.09,5.37.07.75,1.09.95,1.09,0V13.6Z"/><path class="cls-1" d="M582.14,13.34H572.8c-.92,0-1,1.58,0,1.58s.24,0,.64.06c4.17.22,6.27.31,6.27,4.84V53c0,7,0,8.26-5.87,9.11h0c-.85,0-.75.95,0,.95H596c.51,0,.49-.95,0-.95,0,0-.4-.06-1-.1-6.67-.44-6.62-3-6.62-10.13V19.52C588.3,14.2,585.64,13.34,582.14,13.34Z"/><path class="cls-1" d="M657.8,13.34h-16l-.17,0-.21,0h-.66c-.93,0-1,1.58,0,1.58s.24,0,.64.05c2.76.15,3.64.24,4.58,1.6.72,1.3.72,1.42.72,4.89V50c-4.83-4.88-26.9-27.5-31.49-32.17-3.36-4.25-12.48-4.46-12.48-4.46H602l-.18,0-.2,0H601c-.93,0-1.05,1.58,0,1.58s.24,0,.64.05c2.76.15,4.61.24,5.55,1.6.72,1.29.72,3.35.72,6.83V53c0,3.48,0,5.54-.72,6.84-.94,1.36-2.79,1.45-5.55,1.59-.4,0,.41.06-.64.06S600.05,63,601,63h.66l.2,0,.18,0h21.46c.51,0,.5-1.27,0-1.27,0,0-.4-.06-1-.11-6.67-.43-6-2.67-6-9.8V31.59L646.4,63l.08-.28c1.76,2.22,5.93,1.64,5.93-1,0,0,0-3,0-3V24.52c0-7.13-.79-8.86,4.36-9.8a5.25,5.25,0,0,1,1-.11C658.3,14.61,658.32,13.34,657.8,13.34Z"/><path class="cls-1" d="M721.44,27.83v0A.09.09,0,0,0,721.44,27.83Z"/><path class="cls-1" d="M713.73,37s10-3.26,7.71-9.16c.07.29.13,2.24-9.37,5.34l-1,.33V23.4c0-3.48,0-5.54.72-6.83.94-1.35,2.79-1.45,5.55-1.6.4,0-.41-.05.64-.05s.93-1.58,0-1.58h-.66l-.2,0-.18,0H696.46c-.51,0-.5.94,0,.94,0,0,.4.07,1,.11,5,.33,5,2.11,5,6.63V36.34c-8,2.64-17.6,5.86-23.41,7.8v-23c0-.05,0-.1,0-.15,0-4.52,0-6.3,5-6.63.63,0,1-.11,1-.11.49,0,.51-.94,0-.94H664.62l-.18,0-.2,0h-.67c-.92,0-1.05,1.58,0,1.58s.25,0,.65.05c2.76.15,4.61.25,5.55,1.6.72,1.29.72,3.35.72,6.83V53c0,3.48,0,5.54-.72,6.84-.94,1.36-2.79,1.45-5.55,1.59-.4,0,.41.06-.65.06s-.92,1.58,0,1.58h.67l.2,0,.18,0h21.46c.51,0,.49-1.27,0-1.27,0,0-.4-.06-1-.11-6.67-.43-6-2.67-6-9.8v-3.4l23.41-7.75V51.86c0,7.13,1,9.37-5.65,9.8-.62.05-1,.11-1,.11-.49,0-.51,1.27,0,1.27h20.5l.17,0,.21,0h.66c.92,0,1-1.58,0-1.58s-.24,0-.65-.06c-2.75-.14-4-.23-4.9-1.59-.72-1.3-.72-3.36-.72-6.84V37.87Z"/><path class="cls-1" d="M351.52,73.7a6.18,6.18,0,0,1-1.63-.16c-1.1-.23-3.76-.61-7.65-4.36-3.48-3.35-21.95-27.46-29.2-37.57,4.13-4.7,8.79-10,9.93-11,2.85-2.69,6.27-6,8.43-6.81a13.1,13.1,0,0,1,3.92-.77c.62,0,1-.24,1-.7s-.46-.61-1.15-.61c-2.08,0-5.85.15-7.93.15-1.85,0-9,7.13-10.9,9.28s-11.85,11.94-14.17,14.41l-.42.42V21.17a.76.76,0,0,0,0-.15c.05-4.51.62-6.3,5.66-6.63.63,0,1-.11,1-.11.5,0,.51-.94,0-.94H287.29l-.17,0-.21,0h-.66c-.93,0-1.05,1.58,0,1.58s.24,0,.64.05c2.76.15,4.61.25,5.55,1.6.72,1.29.72,3.35.72,6.83V53c0,3.48,0,5.54-.72,6.84-.94,1.36-2.79,1.44-5.55,1.59-.4,0,.41.06-.64.06s-.93,1.58,0,1.58h.66l.21,0,.17,0H309.4c.51,0,.49-.95,0-.95,0,0-.41-.06-1-.11-6.67-.43-6.62-3-6.62-10.12V44.29l4.4-4.76,1-1.16c6.82,9.74,23.86,33,27.29,35.41,1.66,1.15,6.25,1.32,10.07,1.32h6.55c.85,0,1.32-.15,1.32-.7A.8.8,0,0,0,351.52,73.7Z"/></g></g></svg>